<svg xmlns="http://www.w3.org/2000/svg" viewBox="0 0 512 512">
  <rect width="512" height="512" rx="96" fill="#12856f"/>
  <circle cx="270" cy="116" r="44" fill="#fff8dd"/>
  <path fill="#fff8dd" d="M238 181c44-10 91 9 113 47l34 59a28 28 0 0 1-48 28l-28-48-35 67 67 73a30 30 0 1 1-44 41l-83-90a31 31 0 0 1-5-36l32-62-49 15-34 58a28 28 0 1 1-48-29l40-68c8-13 20-22 35-25l53-30Z"/>
  <path fill="#d9793d" d="M141 138c30-28 70-45 113-48a20 20 0 0 1 3 40 136 136 0 0 0-88 36 20 20 0 1 1-28-28Zm-7 244a20 20 0 0 1 28-1 137 137 0 0 0 94 37 20 20 0 0 1 0 40c-46 0-89-17-122-48a20 20 0 0 1 0-28Z"/>
</svg>
